<svg width="27" height="59" viewBox="0 0 27 59" fill="none" xmlns="http://www.w3.org/2000/svg">
<g clip-path="url(#clip0_4_42)">
<path d="M20.4867 0.0552979C20.413 0.0783424 20.2617 0.207405 20.1453 0.345688C19.9785 0.5485 19.8854 0.723656 19.6798 1.23069C19.5402 1.581 19.3152 2.13873 19.1833 2.47061C18.6246 3.86264 17.9884 4.69694 17.0884 5.22702C16.8984 5.34225 16.6035 5.48053 16.4328 5.54045C16.1535 5.63725 16.1109 5.66952 15.9014 5.93686C15.6104 6.30561 15.3078 6.8403 14.8695 7.76678C14.2333 9.10811 14.1208 9.43538 13.9734 10.3296C13.8919 10.8182 13.8686 11.0072 13.7328 12.3669C13.6591 13.0998 13.535 13.8973 13.4574 14.1369C13.3759 14.3997 12.5962 15.423 12.0065 16.0452C11.9212 16.1374 11.735 16.3679 11.5915 16.5615C11.2229 17.0455 10.8195 17.4188 10.3501 17.7C10.129 17.8337 9.83801 18.0457 9.69836 18.1794C9.29879 18.5573 8.84103 18.9491 7.42896 20.1199C5.45051 21.7655 4.91129 22.2771 3.9337 23.434C3.21603 24.2914 2.90568 24.7293 2.46344 25.5175C1.74577 26.7943 1.33456 27.9282 0.876805 29.9148C0.523787 31.4544 0.419046 32.367 0.419046 33.9941C0.415167 35.5475 0.492753 36.4601 0.927236 40.1246C1.06689 41.3046 1.18715 42.5676 1.24146 43.4894C1.26474 43.8674 1.29965 44.3652 1.32293 44.5911C1.40051 45.4208 1.24922 46.2781 0.795339 47.6148C0.263873 49.1728 0.143615 49.6199 0.05827 50.3805C-0.0775059 51.5651 0.0466321 52.7958 0.426804 53.9527C0.698356 54.7778 1.28801 55.8011 1.84275 56.4049C3.01818 57.6909 5.06258 58.5483 7.7587 58.8894C8.56172 58.9954 10.641 59.0092 11.4828 58.917C13.3953 58.7096 15.1178 58.2487 16.5065 57.5757C17.1428 57.2623 17.5346 56.9304 17.5928 56.64C17.616 56.534 17.5966 56.4833 17.488 56.3542C17.2669 56.0915 16.8053 55.967 15.8859 55.9301C15.1216 55.8979 14.4428 55.9809 13.9772 56.1652C13.2712 56.451 10.3462 56.6723 9.4462 56.5109C9.29879 56.4879 8.89146 56.4418 8.55008 56.4187C7.5531 56.3496 6.81215 56.1284 5.34189 55.4692C4.53887 55.1097 4.19749 54.8562 3.71258 54.2569C3.32077 53.773 2.93284 53.1 2.85137 52.7543C2.75827 52.3763 2.7156 52.0076 2.7156 51.5512C2.7156 50.7031 2.95224 50.2053 3.44103 50.0301C3.68543 49.9426 3.89491 49.9472 4.33715 50.0578C5.00439 50.2191 5.9393 50.3344 7.34362 50.4266C8.38715 50.5003 15.0634 50.5049 16.5453 50.4358C19.9475 50.2791 21.8949 49.8688 23.0548 49.076C23.4272 48.8179 23.7997 48.38 23.8307 48.1541C23.8811 47.7716 23.7104 47.4904 23.3419 47.3613C23.2294 47.3198 22.8337 47.2461 22.4613 47.1954C21.7281 47.0986 21.3285 47.0018 21.1966 46.9004C21.1307 46.8497 21.1035 46.7437 21.0492 46.338C20.9794 45.8218 20.7234 44.3283 20.3471 42.2219C19.7497 38.8985 19.5673 36.663 19.7807 35.4C20.0018 34.0909 20.5798 32.3855 21.4178 30.5694C21.6117 30.1499 21.8484 29.6244 21.9492 29.3986C22.0501 29.1635 22.279 28.7625 22.4923 28.449C23.0703 27.6009 23.241 27.2598 23.3574 26.7344C23.3807 26.6191 23.4738 26.384 23.563 26.2043C24.0634 25.2087 24.1837 24.4804 24.2535 22.0236C24.304 20.1291 24.2962 20.0277 24.0324 18.3223C23.819 16.9533 23.7686 16.414 23.7919 15.741C23.8346 14.4596 24.0402 14.054 25.0061 13.3487C25.3708 13.0814 25.5919 12.8786 25.8169 12.6112C26.4764 11.823 26.938 10.7813 26.9884 9.97928C27.0389 9.22334 26.8061 8.84538 26.0109 8.35217C25.4522 8.00647 25.2078 7.80366 25.0682 7.55475C24.4126 6.4024 23.6949 5.70178 22.8104 5.34686C22.6747 5.29155 22.407 5.2224 22.213 5.19475L21.86 5.13944L21.7708 4.9228C21.6195 4.56327 21.569 4.04241 21.5341 2.48905C21.4953 0.935688 21.4604 0.645298 21.2781 0.318031C21.1229 0.0368576 20.8281 -0.0645485 20.4867 0.0552979Z" fill="white"/>
</g>
<defs>
<clipPath id="clip0_4_42">
<rect width="27" height="59" fill="white"/>
</clipPath>
</defs>
</svg>
